<svg width="153" height="39" viewBox="0 0 153 39" fill="none" xmlns="http://www.w3.org/2000/svg">
<path d="M98.2912 31V17.9091H103.303C104.249 17.9091 105.035 18.0582 105.661 18.3565C106.292 18.6506 106.763 19.0533 107.074 19.5646C107.389 20.076 107.547 20.6555 107.547 21.3033C107.547 21.8359 107.445 22.2919 107.24 22.6712C107.036 23.0462 106.761 23.3509 106.415 23.5852C106.07 23.8196 105.685 23.9879 105.259 24.0902V24.218C105.723 24.2436 106.168 24.3864 106.594 24.6463C107.025 24.902 107.376 25.2642 107.649 25.733C107.922 26.2017 108.058 26.7685 108.058 27.4332C108.058 28.1108 107.894 28.7202 107.566 29.2614C107.238 29.7983 106.744 30.2223 106.083 30.5334C105.423 30.8445 104.592 31 103.59 31H98.2912ZM100.663 29.0185H103.213C104.074 29.0185 104.694 28.8544 105.073 28.5263C105.457 28.1939 105.648 27.7678 105.648 27.2479C105.648 26.8601 105.553 26.5107 105.361 26.1996C105.169 25.8842 104.896 25.6371 104.543 25.4581C104.189 25.2749 103.767 25.1832 103.277 25.1832H100.663V29.0185ZM100.663 23.4766H103.009C103.418 23.4766 103.786 23.402 104.114 23.2528C104.442 23.0994 104.7 22.8842 104.888 22.6072C105.08 22.326 105.175 21.9936 105.175 21.6101C105.175 21.103 104.996 20.6854 104.638 20.3572C104.285 20.0291 103.759 19.8651 103.06 19.8651H100.663V23.4766ZM114.366 31.1918C113.381 31.1918 112.531 30.9872 111.815 30.5781C111.104 30.1648 110.556 29.581 110.172 28.8267C109.789 28.0682 109.597 27.1754 109.597 26.1484C109.597 25.1385 109.789 24.2521 110.172 23.4893C110.56 22.7223 111.101 22.1257 111.796 21.6996C112.491 21.2692 113.307 21.054 114.244 21.054C114.849 21.054 115.42 21.152 115.957 21.348C116.498 21.5398 116.976 21.8381 117.389 22.2429C117.807 22.6477 118.135 23.1634 118.373 23.7898C118.612 24.4119 118.731 25.1534 118.731 26.0142V26.7237H110.684V25.1641H116.513C116.509 24.7209 116.413 24.3267 116.226 23.9815C116.038 23.6321 115.776 23.3572 115.439 23.157C115.107 22.9567 114.719 22.8565 114.276 22.8565C113.803 22.8565 113.388 22.9716 113.03 23.2017C112.672 23.4276 112.393 23.7259 112.192 24.0966C111.996 24.4631 111.896 24.8658 111.892 25.3047V26.6662C111.892 27.2372 111.996 27.7273 112.205 28.1364C112.414 28.5412 112.706 28.8523 113.081 29.0696C113.456 29.2827 113.895 29.3892 114.398 29.3892C114.734 29.3892 115.039 29.3423 115.312 29.2486C115.584 29.1506 115.821 29.0078 116.021 28.8203C116.221 28.6328 116.373 28.4006 116.475 28.1236L118.635 28.3665C118.499 28.9375 118.239 29.4361 117.856 29.8622C117.476 30.2841 116.991 30.6122 116.398 30.8466C115.806 31.0767 115.128 31.1918 114.366 31.1918ZM120.689 31V21.1818H122.901V22.8501H123.016C123.22 22.2876 123.559 21.8487 124.032 21.5334C124.505 21.2138 125.07 21.054 125.726 21.054C126.391 21.054 126.951 21.2159 127.407 21.5398C127.867 21.8594 128.191 22.2962 128.379 22.8501H128.481C128.698 22.3047 129.065 21.87 129.58 21.5462C130.1 21.218 130.716 21.054 131.428 21.054C132.331 21.054 133.068 21.3395 133.639 21.9105C134.21 22.4815 134.496 23.3146 134.496 24.4098V31H132.175V24.7678C132.175 24.1584 132.013 23.7131 131.69 23.4318C131.366 23.1463 130.969 23.0036 130.501 23.0036C129.942 23.0036 129.506 23.1783 129.19 23.5277C128.879 23.8729 128.724 24.3224 128.724 24.8764V31H126.455V24.6719C126.455 24.1648 126.301 23.7599 125.994 23.4574C125.692 23.1548 125.295 23.0036 124.805 23.0036C124.473 23.0036 124.17 23.0888 123.898 23.2592C123.625 23.4254 123.408 23.6619 123.246 23.9688C123.084 24.2713 123.003 24.625 123.003 25.0298V31H120.689Z" fill="black"/>
<path d="M22.2159 15.5795H17.9659C17.8447 14.8826 17.6212 14.2652 17.2955 13.7273C16.9697 13.1818 16.5644 12.7197 16.0795 12.3409C15.5947 11.9621 15.0417 11.678 14.4205 11.4886C13.8068 11.2917 13.1439 11.1932 12.4318 11.1932C11.1667 11.1932 10.0455 11.5114 9.06818 12.1477C8.09091 12.7765 7.32576 13.7008 6.77273 14.9205C6.2197 16.1326 5.94318 17.6136 5.94318 19.3636C5.94318 21.1439 6.2197 22.6439 6.77273 23.8636C7.33333 25.0758 8.09848 25.9924 9.06818 26.6136C10.0455 27.2273 11.1629 27.5341 12.4205 27.5341C13.1174 27.5341 13.7689 27.4432 14.375 27.2614C14.9886 27.072 15.5379 26.7955 16.0227 26.4318C16.5152 26.0682 16.928 25.6212 17.2614 25.0909C17.6023 24.5606 17.8371 23.9545 17.9659 23.2727L22.2159 23.2955C22.0568 24.4015 21.7121 25.4394 21.1818 26.4091C20.6591 27.3788 19.9735 28.2348 19.125 28.9773C18.2765 29.7121 17.2841 30.2879 16.1477 30.7045C15.0114 31.1136 13.75 31.3182 12.3636 31.3182C10.3182 31.3182 8.49242 30.8447 6.88636 29.8977C5.2803 28.9508 4.01515 27.5833 3.09091 25.7955C2.16667 24.0076 1.70455 21.8636 1.70455 19.3636C1.70455 16.8561 2.17045 14.7121 3.10227 12.9318C4.03409 11.1439 5.30303 9.77651 6.90909 8.82954C8.51515 7.88257 10.3333 7.40909 12.3636 7.40909C13.6591 7.40909 14.8636 7.59091 15.9773 7.95454C17.0909 8.31818 18.0833 8.85227 18.9545 9.55682C19.8258 10.2538 20.5417 11.1098 21.1023 12.125C21.6705 13.1326 22.0417 14.2841 22.2159 15.5795ZM37.0199 23.6591V13.5455H41.1335V31H37.1449V27.8977H36.9631C36.5691 28.875 35.9214 29.6742 35.0199 30.2955C34.1259 30.9167 33.0237 31.2273 31.7131 31.2273C30.5691 31.2273 29.5578 30.9735 28.679 30.4659C27.8078 29.9508 27.1259 29.2045 26.6335 28.2273C26.1411 27.2424 25.8949 26.053 25.8949 24.6591V13.5455H30.0085V24.0227C30.0085 25.1288 30.3116 26.0076 30.9176 26.6591C31.5237 27.3106 32.3191 27.6364 33.304 27.6364C33.91 27.6364 34.4972 27.4886 35.0653 27.1932C35.6335 26.8977 36.0994 26.4583 36.4631 25.875C36.8343 25.2841 37.0199 24.5455 37.0199 23.6591ZM45.3636 31V13.5455H49.4773V31H45.3636ZM47.4318 11.0682C46.7803 11.0682 46.2197 10.8523 45.75 10.4205C45.2803 9.98106 45.0455 9.45454 45.0455 8.84091C45.0455 8.2197 45.2803 7.69318 45.75 7.26136C46.2197 6.82197 46.7803 6.60227 47.4318 6.60227C48.0909 6.60227 48.6515 6.82197 49.1136 7.26136C49.5833 7.69318 49.8182 8.2197 49.8182 8.84091C49.8182 9.45454 49.5833 9.98106 49.1136 10.4205C48.6515 10.8523 48.0909 11.0682 47.4318 11.0682ZM60.1847 31.3068C58.8134 31.3068 57.5862 30.9545 56.5028 30.25C55.4195 29.5455 54.5634 28.5227 53.9347 27.1818C53.3059 25.8409 52.9915 24.2121 52.9915 22.2955C52.9915 20.3561 53.3097 18.7197 53.946 17.3864C54.59 16.0455 55.4574 15.0341 56.5483 14.3523C57.6392 13.6629 58.8551 13.3182 60.196 13.3182C61.2188 13.3182 62.0597 13.4924 62.7188 13.8409C63.3778 14.1818 63.9006 14.5947 64.2869 15.0795C64.6733 15.5568 64.9725 16.0076 65.1847 16.4318H65.3551V7.72727H69.4801V31H65.4347V28.25H65.1847C64.9725 28.6742 64.6657 29.125 64.2642 29.6023C63.8627 30.072 63.3324 30.4735 62.6733 30.8068C62.0142 31.1402 61.1847 31.3068 60.1847 31.3068ZM61.3324 27.9318C62.2036 27.9318 62.946 27.697 63.5597 27.2273C64.1733 26.75 64.6392 26.0871 64.9574 25.2386C65.2756 24.3902 65.4347 23.4015 65.4347 22.2727C65.4347 21.1439 65.2756 20.1629 64.9574 19.3295C64.6468 18.4962 64.1847 17.8485 63.571 17.3864C62.965 16.9242 62.2188 16.6932 61.3324 16.6932C60.4157 16.6932 59.6506 16.9318 59.0369 17.4091C58.4233 17.8864 57.9612 18.5455 57.6506 19.3864C57.34 20.2273 57.1847 21.1894 57.1847 22.2727C57.1847 23.3636 57.34 24.3371 57.6506 25.1932C57.9688 26.0417 58.4347 26.7121 59.0483 27.2045C59.6695 27.6894 60.4309 27.9318 61.3324 27.9318ZM78.8864 31.3523C77.7803 31.3523 76.7841 31.1553 75.8977 30.7614C75.0189 30.3598 74.322 29.7689 73.8068 28.9886C73.2992 28.2083 73.0455 27.2462 73.0455 26.1023C73.0455 25.1174 73.2273 24.303 73.5909 23.6591C73.9545 23.0152 74.4508 22.5 75.0795 22.1136C75.7083 21.7273 76.4167 21.4356 77.2045 21.2386C78 21.0341 78.822 20.8864 79.6705 20.7955C80.6932 20.6894 81.5227 20.5947 82.1591 20.5114C82.7955 20.4205 83.2576 20.2841 83.5455 20.1023C83.8409 19.9129 83.9886 19.6212 83.9886 19.2273V19.1591C83.9886 18.303 83.7348 17.6402 83.2273 17.1705C82.7197 16.7008 81.9886 16.4659 81.0341 16.4659C80.0265 16.4659 79.2273 16.6856 78.6364 17.125C78.053 17.5644 77.6591 18.0833 77.4545 18.6818L73.6136 18.1364C73.9167 17.0758 74.4167 16.1894 75.1136 15.4773C75.8106 14.7576 76.6629 14.2197 77.6705 13.8636C78.678 13.5 79.7917 13.3182 81.0114 13.3182C81.8523 13.3182 82.6894 13.4167 83.5227 13.6136C84.3561 13.8106 85.1174 14.1364 85.8068 14.5909C86.4962 15.0379 87.0492 15.6477 87.4659 16.4205C87.8902 17.1932 88.1023 18.1591 88.1023 19.3182V31H84.1477V28.6023H84.0114C83.7614 29.0871 83.4091 29.5417 82.9545 29.9659C82.5076 30.3826 81.9432 30.7197 81.2614 30.9773C80.5871 31.2273 79.7955 31.3523 78.8864 31.3523ZM79.9545 28.3295C80.7803 28.3295 81.4962 28.1667 82.1023 27.8409C82.7083 27.5076 83.1742 27.0682 83.5 26.5227C83.8333 25.9773 84 25.3826 84 24.7386V22.6818C83.8712 22.7879 83.6515 22.8864 83.3409 22.9773C83.0379 23.0682 82.697 23.1477 82.3182 23.2159C81.9394 23.2841 81.5644 23.3447 81.1932 23.3977C80.822 23.4508 80.5 23.4962 80.2273 23.5341C79.6136 23.6174 79.0644 23.7538 78.5795 23.9432C78.0947 24.1326 77.7121 24.3977 77.4318 24.7386C77.1515 25.072 77.0114 25.5038 77.0114 26.0341C77.0114 26.7917 77.2879 27.3636 77.8409 27.75C78.3939 28.1364 79.0985 28.3295 79.9545 28.3295ZM92.2386 31V13.5455H96.2273V16.4545H96.4091C96.7273 15.447 97.2727 14.6705 98.0455 14.125C98.8258 13.572 99.7159 13.2955 100.716 13.2955C100.943 13.2955 101.197 13.3068 101.477 13.3295C101.765 13.3447 102.004 13.3712 102.193 13.4091V17.1932C102.019 17.1326 101.742 17.0795 101.364 17.0341C100.992 16.9811 100.633 16.9545 100.284 16.9545C99.5341 16.9545 98.8598 17.1174 98.2614 17.4432C97.6705 17.7614 97.2045 18.2045 96.8636 18.7727C96.5227 19.3409 96.3523 19.9962 96.3523 20.7386V31H92.2386Z" fill="#00D19F"/>
</svg>
